<?xml version="1.0" encoding="utf-8"?>
<!-- Generator: Adobe Illustrator 24.2.1, SVG Export Plug-In . SVG Version: 6.00 Build 0)  -->
<svg version="1.1" id="Layer_1" xmlns="http://www.w3.org/2000/svg" xmlns:xlink="http://www.w3.org/1999/xlink" x="0px" y="0px"
	 viewBox="0 0 1000 1000" style="enable-background:new 0 0 1000 1000;" xml:space="preserve">
<style type="text/css">
	.st0{fill:#42D1EB;}
	.st1{fill:#231F20;}
	.st2{font-family:'EthnocentricRg-Regular';}
	.st3{font-size:106.7041px;}
	.st4{font-size:93.6885px;}
	.st5{fill:#FFFFFF;}
	.st6{fill:#262626;}
</style>
<g>
	<path class="st0" d="M392.02,455.64c0,79.49,0.05,158.98-0.03,238.47c-0.02,22.06-19.17,44.1-43.83,43.93
		c-52.74-0.35-105.48-0.11-158.22-0.11c-2.23,0-4.47,0.02-6.7-0.05c-1.86-0.06-3.1-1.18-3.61-2.84c-0.5-1.63,0.82-2.7,1.97-3.32
		c12.95-7,24.9-15.51,36.79-24.12c2.76-2,5.8-1.45,8.78-1.45c37.95-0.03,75.91-0.52,113.84,0.27c12.15,0.25,17.64-7.24,17.6-18.24
		c-0.19-55.78-0.09-111.56-0.09-167.35c0-98.18,0-196.35-0.02-294.53c0-3.54-0.08-6.93-1.37-10.5c-2.04-5.68-5.07-8.88-11.35-8.51
		c-3.34,0.2-6.77,0.5-10.03-0.06c-6.96-1.19-10.03,2.51-13.13,8.04c-6.17,10.99-16.07,17.04-28.74,17.09
		c-50.23,0.19-100.46,0.25-150.68-0.04c-13.64-0.08-24.14-6.14-29.26-19.62c-0.47-1.23-1.15-2.81-2.18-3.32
		c-7.55-3.77-15.51-2.8-23.15-0.73c-6.56,1.78-8.12,7.34-8.12,13.69c0.05,136.11,0.03,272.22,0.06,408.33
		c0,11.1,12.11,32.85,26.5,34.4c11.34,1.22,20.61-3.59,29.47-9.21c17.73-11.25,31.47-26.96,44.54-42.98
		c18.09-22.17,33.07-46.51,46.69-71.69c7.22-13.35,11.43-25.83,5.74-42.05c-6.61-18.8,12.3-39.54,33.12-37.33
		c24.24,2.58,35.26,24.23,28.11,44.75c-2.78,7.98-8.44,14.69-16.72,16.97c-9.6,2.64-14.27,8.31-18,17.28
		c-15.44,37.14-34.93,71.85-61.74,102.37c-19.7,22.43-41.96,40.5-70.49,50.14c-35.58,12.03-63.46-7.67-74.34-38.04
		c-5.53-15.43-8.1-31.1-8.1-47.36c0.03-127.74-0.04-255.48,0.07-383.22c0.02-23.55,12.52-40,33.74-48.45
		c2.2-0.88,4.9-0.67,7.36-0.68c27.9-0.04,55.82-0.43,83.71,0.06c56.83,0.99,113.6-2.87,170.41-1.62
		c23.47,0.52,43.57,11.48,50.18,34.33c0.97,3.36,1.11,6.48,1.12,9.68C392.04,297.22,392.02,376.43,392.02,455.64z M276.47,492.6
		c-0.03-6.71-5.19-12.31-11.45-12.43c-7.93-0.15-13.57,5.28-13.67,13.16c-0.08,6.66,5.63,12.01,12.76,11.95
		C272.79,505.21,276.51,501.39,276.47,492.6z"/>
	<path class="st1" d="M114.81,633.78c5.68-6.33,11.52-12.52,17-19.02c17.34-20.54,29.71-43.59,35.42-70.07
		c1.27-5.9,1.4-11.29-0.64-17.12c-4.33-12.39-0.13-23.53,11.01-30.18c2.09-1.24,4.57-4.57,7.26-1.93c2.02,1.98-0.04,4.77-1.06,6.95
		c-2.92,6.28-4.75,12.19-0.13,18.8c6.52,9.3,17.12,9.01,22.46-1.09c0.13-0.25,0.19-0.55,0.37-0.74c2.46-2.65,1.97-9.35,6.72-8
		c4.81,1.36,4.18,7.34,3.93,11.73c-0.53,9.23-5.51,15.71-13.87,19.18c-6.59,2.73-10.68,7.11-13.73,13.58
		c-8.45,17.9-18.32,35.04-31.15,50.26C146.91,619.79,132.69,629.37,114.81,633.78z"/>
</g>
<text transform="matrix(1 0 0 1 406.5904 573.9445)"><tspan x="0" y="0" class="st0 st2 st3">Sm</tspan><tspan x="237.1" y="0" class="st1 st2 st3">a</tspan><tspan x="358.2" y="0" class="st0 st2 st3">rt</tspan></text>
<text transform="matrix(1 0 0 1 406.5904 662.879)"><tspan x="0" y="0" class="st0 st2 st4">St</tspan><tspan x="173.98" y="0" class="st1 st2 st4">a</tspan><tspan x="280.31" y="0" class="st0 st2 st4">tion</tspan></text>
<circle class="st5" cx="291.48" cy="564.13" r="3.22"/>
<circle class="st5" cx="279.69" cy="560.91" r="3.22"/>
<path class="st1" d="M287.47,214.75H157.5c-3.98,0-7.23-3.25-7.23-7.23v0c0-3.98,3.25-7.23,7.23-7.23h129.97
	c3.98,0,7.23,3.25,7.23,7.23v0C294.69,211.5,291.44,214.75,287.47,214.75z"/>
<path class="st6" d="M256.68,521.2c-1.31-0.44-2.46-0.86-3.64-1.2c-3.11-0.91-4.68-2.35-3.59-6.08c1.06-3.62-2.98-7.41-6.78-6.95
	c-1.41,0.17-3.64,0.8-4.11,0.18c-1.38-1.84-2.29-4.14-2.89-6.39c-0.17-0.66,1.17-1.96,2.07-2.61c4.46-3.24,4.63-8.1-0.06-11.04
	c-2.77-1.74-2.09-3.46-1.1-5.62c0.96-2.1,1.29-4.4,4.83-3.63c5.55,1.21,9.05-2.48,7.76-8.01c-0.67-2.89,0.97-3.65,2.95-4.33
	c2.05-0.7,4.06-2.65,6.14,0.43c3.31,4.92,8.1,4.92,11.38,0.02c1.66-2.48,3.39-1.68,5.24-0.83c1.9,0.87,4.74,1.07,3.81,4.45
	c-0.65,2.35-0.81,4.35,1.33,6.42c2.04,1.97,3.96,2.88,6.54,1.92c3.53-1.32,3.83,1.55,4.79,3.54c1.04,2.16,1.53,3.99-1.2,5.69
	c-4.51,2.81-4.56,8.06-0.1,10.76c2.94,1.78,2.25,3.68,1.2,5.95c-0.97,2.11-1.4,4.35-4.95,3.39c-4.91-1.34-8.73,2.54-7.67,7.54
	c0.67,3.17-0.97,4.23-3.4,5.11c-2.23,0.8-4.09,1.98-5.91-1.16c-2.57-4.41-7.89-4.24-10.82-0.07
	C257.97,519.39,257.44,520.12,256.68,521.2z M264.05,508.64c8.95-0.04,16.23-7.41,16.09-16.28c-0.13-8.76-7.38-15.92-16.14-15.94
	c-9-0.03-16.18,7.15-16.18,16.16C247.83,501.59,254.99,508.68,264.05,508.64z"/>
<path class="st0" d="M188.88,492.95c2.75,1.62,5.21,2.23,6.59-1.88c0.61-1.83,3.49-1.77,4.46-0.13c2.3,3.87,2.56,3.95,6.68,1.97
	c0.76,0.71,1.58,1.46,2.19,2.03c0.14,0.41,0.25,0.57,0.21,0.64c-2.32,3.77-0.58,5.85,2.87,7.44c0.12,0.06-0.47,3.19-1.38,3.68
	c-2.49,1.34-3.29,2.75-2.01,5.38c0.31,0.63,0.03,2.02-0.49,2.47c-0.65,0.57-2.04,0.99-2.75,0.66c-2.69-1.23-4.19-0.43-5.28,2.17
	c-0.29,0.69-1.41,1.49-2.1,1.45c-0.89-0.06-2.22-0.71-2.52-1.45c-1.08-2.69-2.57-3.41-5.26-2.17c-0.71,0.33-2.1-0.08-2.77-0.64
	c-0.53-0.44-0.82-1.83-0.52-2.46c1.23-2.58,0.63-4.16-1.98-5.34c-0.79-0.35-1.66-1.55-1.65-2.35c0.01-0.81,1.11-1.58,1.64-2.43
	c0.86-1.39,2.69-3.42,2.28-4.16C185.65,495.24,186.94,494.19,188.88,492.95z M197.69,511.63c3.93-0.02,7.11-3.21,7.14-7.14
	c0.03-3.92-3.14-7.22-7.02-7.31c-3.92-0.09-7.48,3.44-7.42,7.37C190.45,508.36,193.85,511.65,197.69,511.63z"/>
<path class="st1" d="M263.3,604.07c2.28,1.48,4.18,2.65,6.02,3.92c4.04,2.8,4.97,7.35,2.36,11.54c-1.58,2.54-3.3,4.99-4.86,7.54
	c-2.15,3.5-4.44,6.46-8.56,8.28c-5.68,2.51-7.59,7.82-7.58,13.91c0,1.47-0.41,3.15-1.2,4.38c-7.9,12.36-15.91,24.66-23.92,36.95
	c-6.36,9.76-18.26,12.53-27.61,6.47c-9.28-6.01-11.64-18.15-5.36-27.89c8.01-12.41,16.04-24.79,24.15-37.13
	c0.7-1.07,1.92-2.01,3.1-2.52c6.97-2.96,10.3-8.06,10.13-15.52c-0.03-1.3,0.34-2.78,1-3.88c2.42-4,5-7.89,7.59-11.78
	c2.96-4.44,7.4-5.39,11.89-2.58c1.81,1.13,3.58,2.32,5.61,3.63c0.7-0.98,1.31-1.77,1.85-2.6c15.47-23.83,30.95-47.65,46.38-71.51
	c0.99-1.53,1.52-3.37,2.29-5.05c0.3-0.66,0.55-1.42,1.04-1.92c2.81-2.87,5.77-5.6,8.5-8.53c1.32-1.42,2.23-0.66,3.36,0.04
	c1.18,0.73,2.08,1.37,1.35,3.08c-1.53,3.61-2.84,7.31-4.26,10.97c-0.2,0.51-0.42,1.04-0.76,1.47c-2.77,3.59-5.84,6.98-8.32,10.76
	c-14.19,21.65-28.24,43.39-42.33,65.11C264.61,602.05,264.06,602.9,263.3,604.07z M226.32,668.97c4.17-6.42,8.31-12.87,12.53-19.26
	c1.11-1.69,1.35-2.98-0.65-4.16c-1.99-1.18-2.86,0.03-3.78,1.47c-8.28,12.78-16.56,25.55-24.86,38.31c-1.04,1.59-1.97,3.02,0.3,4.44
	c2.34,1.46,3.14-0.25,4.12-1.76C218.08,681.66,222.2,675.31,226.32,668.97z M215.94,662.45c4.22-6.5,8.42-13.01,12.67-19.49
	c1.02-1.55,1.34-2.78-0.53-3.97c-1.89-1.21-2.88-0.3-3.86,1.21c-8.37,12.93-16.76,25.85-25.16,38.77c-0.96,1.48-1.49,2.77,0.37,4.04
	c2,1.37,2.98,0.34,4.01-1.28C207.58,675.28,211.77,668.87,215.94,662.45z"/>
</svg>
